<svg width="52" height="48" viewBox="0 0 52 48" fill="none" xmlns="http://www.w3.org/2000/svg">
<g clip-path="url(#clip0_736_27)">
<path d="M52 10.9526V25.4827C52 25.4827 48.6311 26.0953 47.937 26.1759C47.2452 26.2563 45.0711 26.9043 43.4954 25.5063C41.0655 23.3566 32.432 15.4312 32.432 15.4312C32.432 15.4312 30.9435 14.0829 28.5533 15.2481C26.3592 16.3156 23.1069 17.88 21.7484 18.4892C19.1803 19.7509 17.0518 17.7491 17.0518 16.2242C17.0518 15.0414 17.8514 14.2386 18.9944 13.6482C22.092 11.9148 28.6209 8.53203 31.3402 7.19834C32.993 6.38685 34.184 6.31731 36.4533 8.08198C39.2481 10.2517 41.7353 12.2294 41.7353 12.2294C41.7353 12.2294 42.5465 12.8544 43.8403 12.6027C47.0172 11.9826 52 10.9526 52 10.9526ZM17.6366 35.5724C18.0547 34.5808 17.915 33.4718 17.1134 32.711C16.3931 32.0305 15.3415 31.8511 14.3388 32.0632C14.6193 31.1452 14.4644 30.1681 13.7403 29.4785C13.0178 28.7997 11.9682 28.6168 10.9656 28.8308C11.2439 27.9141 11.0895 26.9371 10.3649 26.2496C9.23032 25.1754 7.26782 25.2215 5.97858 26.3558C4.69616 27.4918 3.87465 29.5498 5.0192 30.7612C6.16187 31.9664 7.47482 31.2331 8.47575 31.0226C8.1973 31.9392 7.36298 32.7919 8.39045 33.9917C9.41698 35.1922 10.846 34.4639 11.8479 34.2552C11.5685 35.1684 10.7706 36.1067 11.7587 37.2192C12.7556 38.3351 14.3884 37.7405 15.4669 37.4313C15.0507 38.419 14.1598 39.4838 15.3044 40.6769C16.4472 41.8787 19.0881 41.3227 20.378 40.1866C21.6646 39.0507 21.788 37.2504 20.6565 36.1727C19.8753 35.4334 18.7107 35.2614 17.6366 35.5724ZM41.1745 28.013C31.8493 19.4051 36.2354 23.4555 31.2171 18.8132C31.2171 18.8132 29.7089 17.4272 27.7211 18.2323C26.3257 18.7968 24.5291 19.566 23.1774 20.1533C21.6919 20.8723 20.6229 21.0949 20.121 21.0918C17.2494 21.0744 14.9195 18.9439 14.9195 16.2958C14.9195 14.5779 15.9076 13.0822 17.3811 12.2333C19.4533 10.9097 24.2229 8.56787 24.2229 8.56787C24.2229 8.56787 22.7699 6.86828 19.5868 6.86828C16.4048 6.86828 9.75649 10.8886 9.75649 10.8886C9.75649 10.8886 7.87047 12.0037 5.18193 10.9993L0 9.33364V25.9602C0 25.9602 1.47967 26.3556 2.8092 26.8568C3.10947 26.0664 3.59399 25.3364 4.2661 24.7335C6.4718 22.7943 10.1278 22.7741 12.1346 24.6815C12.7391 25.2614 13.161 25.9531 13.3763 26.7177C14.1849 26.9481 14.9173 27.3562 15.5059 27.916C16.1123 28.4919 16.5326 29.1875 16.7496 29.9482C17.5573 30.1788 18.2887 30.5885 18.8793 31.1487C19.5444 31.7817 19.9874 32.5465 20.1943 33.375C21.0386 33.602 21.8016 34.0244 22.4161 34.6043C23.6221 35.7478 24.0502 37.2992 23.7908 38.7957C23.7929 38.7957 23.7969 38.7957 23.7988 38.7991C23.8185 38.8229 24.546 39.5715 24.9997 39.9938C25.8888 40.8152 27.3405 40.8152 28.2324 39.9938C29.1183 39.1726 29.1222 37.8351 28.2324 37.0098C28.2005 36.9805 25.0248 33.9142 25.2804 33.6765C25.5341 33.4404 29.58 37.3265 29.6554 37.3976C30.5433 38.2174 31.9941 38.2174 32.886 37.3976C33.7758 36.5764 33.7739 35.2389 32.886 34.4155C32.8424 34.3772 32.6602 34.2161 32.5927 34.152C32.5927 34.152 28.5812 30.8534 28.8865 30.5715C29.1956 30.288 34.1784 34.5803 34.1865 34.5803C35.0822 35.3248 36.4619 35.3193 37.3236 34.5235C38.162 33.7497 38.1799 32.5256 37.4367 31.7008C37.4209 31.6569 33.6392 28.0088 33.9344 27.7344C34.2338 27.4563 37.9757 31.013 37.9836 31.0203C38.8695 31.84 40.3223 31.84 41.2143 31.0203C42.1022 30.2006 42.1022 28.8615 41.2143 28.0345C41.2022 28.0275 41.1863 28.0202 41.1745 28.013Z" fill="#449FE2"/>
</g>
<defs>
<clipPath id="clip0_736_27">
<rect width="52" height="48" fill="white"/>
</clipPath>
</defs>
</svg>
