<svg width="50" height="50" viewBox="0 0 50 50" fill="none" xmlns="http://www.w3.org/2000/svg">
<path fill-rule="evenodd" clip-rule="evenodd" d="M25.0013 45.8334C36.5071 45.8334 45.8346 36.5059 45.8346 25.0001C45.8346 13.4941 36.5071 4.16675 25.0013 4.16675C13.4954 4.16675 4.16797 13.4941 4.16797 25.0001C4.16797 36.5059 13.4954 45.8334 25.0013 45.8334ZM17.496 32.403C18.0099 31.7097 18.9885 31.5643 19.6817 32.0782C21.1992 33.2028 23.0307 33.8543 25.0013 33.8543C26.9719 33.8543 28.8034 33.2028 30.3209 32.0782C31.0142 31.5643 31.9928 31.7097 32.5065 32.403C33.0205 33.0963 32.8751 34.0749 32.1817 34.5886C30.1559 36.0903 27.6784 36.9793 25.0013 36.9793C22.3242 36.9793 19.8467 36.0903 17.8209 34.5886C17.1276 34.0749 16.9822 33.0963 17.496 32.403ZM33.3346 21.8751C33.3346 23.6009 32.4019 25.0001 31.2513 25.0001C30.1007 25.0001 29.168 23.6009 29.168 21.8751C29.168 20.1492 30.1007 18.7501 31.2513 18.7501C32.4019 18.7501 33.3346 20.1492 33.3346 21.8751ZM18.7513 25.0001C19.9019 25.0001 20.8346 23.6009 20.8346 21.8751C20.8346 20.1492 19.9019 18.7501 18.7513 18.7501C17.6007 18.7501 16.668 20.1492 16.668 21.8751C16.668 23.6009 17.6007 25.0001 18.7513 25.0001Z" fill="#449FE2"/>
</svg>
