<svg width="54" height="54" viewBox="0 0 54 54" fill="none" xmlns="http://www.w3.org/2000/svg">
<path d="M26.5749 15.1351C28.8548 11.045 29.9949 9 31.6993 9C33.4037 9 34.5435 11.045 36.8234 15.1351L37.4134 16.1932C38.0612 17.3555 38.3852 17.9366 38.8903 18.3201C39.3954 18.7035 40.0245 18.8458 41.2827 19.1305L42.428 19.3896C46.8555 20.3914 49.0693 20.8923 49.5958 22.586C50.1225 24.2795 48.6134 26.0444 45.5951 29.5738L44.8141 30.4871C43.9564 31.4899 43.5275 31.9914 43.3347 32.612C43.1417 33.2323 43.2065 33.9014 43.3363 35.2395L43.4542 36.4579C43.9107 41.1671 44.1389 43.5218 42.7598 44.5685C41.381 45.6152 39.3083 44.6607 35.1629 42.752L34.0906 42.2584C32.9125 41.7159 32.3237 41.4448 31.6993 41.4448C31.0749 41.4448 30.4859 41.7159 29.308 42.2584L28.2354 42.752C24.09 44.6607 22.0173 45.6152 20.6385 44.5685C19.2596 43.5218 19.4878 41.1671 19.9441 36.4579L20.0622 35.2395C20.1919 33.9014 20.2567 33.2323 20.0638 32.612C19.8708 31.9914 19.442 31.4899 18.5843 30.4871L17.8034 29.5738C14.7851 26.0444 13.2759 24.2795 13.8026 22.586C14.3293 20.8923 16.543 20.3914 20.9704 19.3896L22.1158 19.1305C23.3738 18.8458 24.0029 18.7035 24.5081 18.3201C25.0132 17.9366 25.3372 17.3555 25.985 16.1932L26.5749 15.1351Z" fill="#449FE2"/>
<path opacity="0.5" fill-rule="evenodd" clip-rule="evenodd" d="M19.6774 11.7054C15.2187 10.4206 10.436 11.0993 5.82141 13.8017L5.35305 14.076C4.54883 14.5469 3.51509 14.2768 3.0441 13.4726C2.57313 12.6683 2.84328 11.6346 3.6475 11.1636L4.11586 10.8893C9.42681 7.77909 15.1583 6.89085 20.6119 8.46239L21.0796 8.59716C21.9752 8.85524 22.4919 9.7904 22.2339 10.6859C21.9758 11.5815 21.0406 12.0983 20.1451 11.8402L19.6774 11.7054ZM10.8816 22.357C10.9607 23.2857 10.2721 24.1027 9.34347 24.1817C8.99886 24.2111 8.73464 24.2278 8.51322 24.242C8.11411 24.2672 7.85406 24.2838 7.5128 24.3493C7.0707 24.4341 6.49666 24.6137 5.45491 25.1345C4.6213 25.5515 3.60768 25.2135 3.19089 24.3799C2.7741 23.5463 3.11196 22.5326 3.94556 22.1159C5.15379 21.5118 6.03073 21.1971 6.87661 21.0347C7.43214 20.9281 8.0056 20.8907 8.5213 20.8571C8.7087 20.8449 8.88847 20.8332 9.057 20.8189C9.9856 20.7398 10.8025 21.4284 10.8816 22.357ZM13.3152 35.6762C10.6513 35.0518 7.8447 35.671 5.74462 37.3257C5.01258 37.9026 3.95154 37.7766 3.37473 37.0447C2.79795 36.3125 2.92379 35.2516 3.65585 34.6747C6.57588 32.3739 10.438 31.5356 14.0852 32.3901C14.9926 32.6027 15.5559 33.5108 15.3432 34.4182C15.1306 35.3257 14.2226 35.8888 13.3152 35.6762Z" fill="#449FE2"/>
</svg>
