<svg width="38" height="38" viewBox="0 0 38 38" fill="none" xmlns="http://www.w3.org/2000/svg">
<path d="M31.4551 35.625H6.52952C5.97945 35.6432 5.43159 35.547 4.92058 35.3426C4.40958 35.1382 3.94655 34.83 3.56077 34.4375C3.17122 34.0544 2.86474 33.5953 2.66044 33.0886C2.45613 32.5819 2.35838 32.0386 2.37327 31.4925V6.53123C2.35508 5.98116 2.45122 5.4333 2.65562 4.92229C2.86002 4.41129 3.16824 3.94826 3.56077 3.56248C3.94655 3.16995 4.40958 2.86173 4.92058 2.65733C5.43159 2.45293 5.97945 2.35678 6.52952 2.37498H31.467C32.0171 2.35678 32.5649 2.45293 33.076 2.65733C33.587 2.86173 34.05 3.16995 34.4358 3.56248C34.8283 3.94826 35.1365 4.41129 35.3409 4.92229C35.5453 5.4333 35.6415 5.98116 35.6233 6.53123V31.4687C35.617 32.5712 35.1755 33.6265 34.3948 34.4049C33.6142 35.1833 32.5576 35.6219 31.4551 35.625ZM24.8526 28.8919C25.7197 28.8805 26.5572 28.5749 27.2276 28.025C27.7078 27.7269 28.1128 27.3223 28.4114 26.8425C28.71 26.3626 28.8941 25.8205 28.9495 25.2581C28.9003 24.8813 28.7614 24.5217 28.5444 24.2097C28.3275 23.8977 28.0388 23.6423 27.7026 23.465C26.9703 22.9028 26.2006 22.391 25.3989 21.9331C24.9344 21.494 24.3274 21.2369 23.6889 21.2087H23.1664C22.8497 21.2087 22.4539 21.6046 21.9789 22.3962C21.8526 22.596 21.677 22.7599 21.4691 22.8722C21.2611 22.9845 21.0277 23.0414 20.7914 23.0375C20.4792 23.0281 20.1721 22.9554 19.8889 22.8237C17.697 21.9495 15.9416 20.2411 15.0083 18.0737C14.8167 17.7363 14.7107 17.3572 14.6995 16.9694C14.7092 16.7902 14.729 16.6118 14.7589 16.435C14.7589 16.1737 15.0558 15.9006 15.5664 15.5919C15.862 15.3998 16.1263 15.1635 16.3501 14.8912C16.5825 14.5854 16.6964 14.2057 16.6708 13.8225C16.5137 13.2402 16.2565 12.6897 15.9108 12.1956C14.4383 9.93935 13.2508 8.81123 12.3483 8.81123C12.1213 8.81128 11.8962 8.85148 11.6833 8.92998C9.80702 9.5831 8.89264 10.6875 8.89264 12.3025C8.90097 12.8646 9.01372 13.4203 9.22514 13.9412C10.5511 17.2536 12.5356 20.2624 15.0585 22.7853C17.5814 25.3083 20.5902 27.2928 23.9026 28.6187C24.1864 28.7994 24.5163 28.8942 24.8526 28.8919ZM28.1895 19C28.4904 19 28.6566 18.905 28.6883 18.715C28.7073 18.6129 28.7073 18.5083 28.6883 18.4062C28.6925 18.3232 28.6925 18.2399 28.6883 18.1569C28.6747 18.0425 28.6747 17.9269 28.6883 17.8125C28.7023 16.2518 28.2918 14.7166 27.5008 13.3712C26.7191 12.0156 25.6236 10.8672 24.3064 10.0225C22.9764 9.1447 21.4333 8.64401 19.8414 8.57373H19.6039H19.2358C18.8914 8.57373 18.7251 8.7756 18.7251 9.16748C18.7151 9.23957 18.7267 9.31303 18.7584 9.37855C18.7901 9.44407 18.8405 9.49873 18.9033 9.5356C19.0295 9.59743 19.1667 9.63375 19.307 9.64248C19.4344 9.64201 19.5603 9.67043 19.6751 9.7256C21.7872 9.89798 23.781 10.7716 25.3395 12.2075C26.7222 13.8081 27.5547 15.8103 27.7145 17.9194L27.6551 18.335C27.6603 18.4909 27.6801 18.6459 27.7145 18.7981C27.7739 18.8812 27.9164 19 28.1895 19ZM25.8145 18.05C25.945 18.0092 26.057 17.9238 26.1309 17.8087C26.2047 17.6936 26.2356 17.5562 26.2183 17.4206V17.2069C26.2085 17.1399 26.2085 17.0719 26.2183 17.005C26.2389 15.5395 25.6848 14.1243 24.6745 13.0625C23.635 11.9352 22.2463 11.1906 20.732 10.9487C20.5188 10.8932 20.2993 10.8653 20.0789 10.8656H19.7583C19.6039 10.8656 19.5089 11.115 19.4733 11.5187C19.4376 11.9225 19.7345 11.97 20.257 11.97C21.5787 12.1501 22.8179 12.716 23.8195 13.5969C24.6188 14.5396 25.1117 15.7037 25.2326 16.9337V17.29C25.2313 17.4482 25.2595 17.6052 25.3158 17.7531C25.3514 17.9431 25.5295 18.0144 25.8501 18.0144L25.8145 18.05ZM23.4395 17.2662C23.6889 17.2662 23.8433 17.1356 23.8789 16.9694C23.925 16.803 23.949 16.6313 23.9501 16.4587C23.9342 16.0725 23.8421 15.6932 23.679 15.3426C23.516 14.9921 23.2853 14.6773 23.0001 14.4162C22.7492 14.1232 22.4403 13.8854 22.0928 13.7178C21.7454 13.5502 21.3669 13.4564 20.9814 13.4425H20.542C20.419 13.4657 20.3096 13.5354 20.2367 13.6371C20.1637 13.7388 20.1327 13.8648 20.1501 13.9887C20.1501 14.25 20.352 14.4162 20.7439 14.4994C21.313 14.5241 21.8494 14.7725 22.2363 15.1905C22.6232 15.6086 22.8295 16.1625 22.8101 16.7319C22.836 16.8775 22.9143 17.0087 23.0303 17.1005C23.1462 17.1924 23.2918 17.2387 23.4395 17.2306V17.2662Z" fill="#449FE2"/>
</svg>
