<svg width="38" height="38" viewBox="0 0 38 38" fill="none" xmlns="http://www.w3.org/2000/svg">
<path d="M19 1.1875C15.5356 1.1875 12.2131 2.56372 9.76342 5.01342C7.31372 7.46311 5.9375 10.7856 5.9375 14.25C5.9375 27.5975 17.8125 36.2306 18.3112 36.5869C18.5124 36.7301 18.7531 36.807 19 36.807C19.2469 36.807 19.4876 36.7301 19.6888 36.5869C20.1875 36.2306 32.0625 27.5975 32.0625 14.25C32.0625 10.7856 30.6863 7.46311 28.2366 5.01342C25.7869 2.56372 22.4644 1.1875 19 1.1875ZM19 20.1875C17.8257 20.1875 16.6777 19.8393 15.7013 19.1869C14.7249 18.5344 13.9639 17.6071 13.5145 16.5222C13.0651 15.4372 12.9475 14.2434 13.1766 13.0917C13.4057 11.9399 13.9712 10.8819 14.8016 10.0516C15.6319 9.22118 16.6899 8.65569 17.8417 8.42659C18.9934 8.19749 20.1872 8.31507 21.2722 8.76447C22.3571 9.21386 23.2844 9.97488 23.9369 10.9513C24.5893 11.9277 24.9375 13.0757 24.9375 14.25C24.9375 15.8247 24.3119 17.3349 23.1984 18.4484C22.0849 19.5619 20.5747 20.1875 19 20.1875Z" fill="#449FE2"/>
</svg>
