<svg width="34" height="34" viewBox="0 0 34 34" fill="none" xmlns="http://www.w3.org/2000/svg">
<path d="M28.8992 1.70001H5.09922C3.22922 1.70001 1.69922 3.23001 1.69922 5.10001V28.9C1.69922 30.7717 3.22922 32.3 5.09922 32.3H16.9992V20.4H13.5992V16.1925H16.9992V12.7075C16.9992 9.02871 19.0596 6.44471 23.4014 6.44471L26.4665 6.44811V10.8766H24.4316C22.7418 10.8766 22.0992 12.1448 22.0992 13.3212V16.1942H26.4648L25.4992 20.4H22.0992V32.3H28.8992C30.7692 32.3 32.2992 30.7717 32.2992 28.9V5.10001C32.2992 3.23001 30.7692 1.70001 28.8992 1.70001Z" fill="#699BF7"/>
</svg>
