<svg width="30" height="30" viewBox="0 0 30 30" fill="none" xmlns="http://www.w3.org/2000/svg">
<path d="M3.75 13.75C3.75 9.03595 3.75 6.67894 5.21446 5.21446C6.67894 3.75 9.03595 3.75 13.75 3.75H16.25C20.964 3.75 23.3211 3.75 24.7855 5.21446C26.25 6.67894 26.25 9.03595 26.25 13.75V16.25C26.25 20.964 26.25 23.3211 24.7855 24.7855C23.3211 26.25 20.964 26.25 16.25 26.25H13.75C9.03595 26.25 6.67894 26.25 5.21446 24.7855C3.75 23.3211 3.75 20.964 3.75 16.25V13.75Z" stroke="white" stroke-width="2"/>
<path d="M20.625 11.25C21.6605 11.25 22.5 10.4105 22.5 9.375C22.5 8.33947 21.6605 7.5 20.625 7.5C19.5895 7.5 18.75 8.33947 18.75 9.375C18.75 10.4105 19.5895 11.25 20.625 11.25Z" fill="white"/>
<path d="M15 19.375C17.4162 19.375 19.375 17.4162 19.375 15C19.375 12.5838 17.4162 10.625 15 10.625C12.5838 10.625 10.625 12.5838 10.625 15C10.625 17.4162 12.5838 19.375 15 19.375Z" stroke="white" stroke-width="2"/>
</svg>
