<svg width="30" height="30" viewBox="0 0 30 30" fill="none" xmlns="http://www.w3.org/2000/svg">
<path d="M9.77344 8.88135C10.0323 8.88135 10.2422 8.67148 10.2422 8.4126C10.2422 8.15371 10.0323 7.94385 9.77344 7.94385C9.51455 7.94385 9.30469 8.15371 9.30469 8.4126C9.30469 8.67148 9.51455 8.88135 9.77344 8.88135Z" fill="white"/>
<path d="M9.77344 10.5811V19.9436" stroke="white" stroke-width="2" stroke-linecap="round" stroke-linejoin="round"/>
<path d="M20.6953 19.9436V13.9373C20.6937 12.9731 20.3099 12.0488 19.6281 11.367C18.9463 10.6852 18.022 10.3015 17.0578 10.2998C16.0925 10.2998 15.1667 10.6828 14.4835 11.3648C13.8003 12.0468 13.4157 12.972 13.4141 13.9373V19.9436" stroke="white" stroke-width="2" stroke-linecap="round" stroke-linejoin="round"/>
<path d="M13.4141 13.9373V10.5811" stroke="white" stroke-width="2" stroke-linecap="round" stroke-linejoin="round"/>
<path d="M25.3125 3.4375H4.6875C4.35598 3.4375 4.03804 3.5692 3.80362 3.80362C3.5692 4.03804 3.4375 4.35598 3.4375 4.6875V25.3125C3.4375 25.644 3.5692 25.962 3.80362 26.1964C4.03804 26.4308 4.35598 26.5625 4.6875 26.5625H25.3125C25.644 26.5625 25.962 26.4308 26.1964 26.1964C26.4308 25.962 26.5625 25.644 26.5625 25.3125V4.6875C26.5625 4.35598 26.4308 4.03804 26.1964 3.80362C25.962 3.5692 25.644 3.4375 25.3125 3.4375Z" stroke="white" stroke-width="2" stroke-linecap="round" stroke-linejoin="round"/>
</svg>
