<svg width="30" height="30" viewBox="0 0 30 30" fill="none" xmlns="http://www.w3.org/2000/svg">
<g clip-path="url(#clip0_722_637)">
<path d="M22.9688 0H7.03125C3.148 0 0 3.148 0 7.03125V22.9688C0 26.852 3.148 30 7.03125 30H22.9688C26.852 30 30 26.852 30 22.9688V7.03125C30 3.148 26.852 0 22.9688 0Z" fill="white"/>
<path d="M22.9688 0H7.03125C3.148 0 0 3.148 0 7.03125V22.9688C0 26.852 3.148 30 7.03125 30H22.9688C26.852 30 30 26.852 30 22.9688V7.03125C30 3.148 26.852 0 22.9688 0Z" fill="#0A66C2"/>
<path d="M21.6463 25.51H25.0764C25.2007 25.51 25.3199 25.4606 25.4078 25.3728C25.4957 25.2849 25.5451 25.1657 25.5451 25.0414L25.5469 17.7943C25.5469 14.0064 24.7307 11.0949 20.3041 11.0949C18.6214 11.0323 17.0346 11.8997 16.1783 13.3481C16.1741 13.3552 16.1678 13.3607 16.1602 13.3637C16.1526 13.3668 16.1442 13.3673 16.1363 13.3652C16.1284 13.363 16.1214 13.3584 16.1164 13.3519C16.1114 13.3454 16.1087 13.3375 16.1086 13.3293V11.9133C16.1086 11.789 16.0592 11.6698 15.9713 11.5818C15.8834 11.4939 15.7642 11.4446 15.6398 11.4446H12.3847C12.2604 11.4446 12.1412 11.4939 12.0533 11.5818C11.9654 11.6698 11.916 11.789 11.916 11.9133V25.0407C11.916 25.165 11.9654 25.2842 12.0533 25.3721C12.1412 25.46 12.2604 25.5094 12.3847 25.5094H15.8146C15.9389 25.5094 16.0581 25.46 16.146 25.3721C16.2339 25.2842 16.2833 25.165 16.2833 25.0407V18.5516C16.2833 16.7168 16.6314 14.9399 18.9061 14.9399C21.1485 14.9399 21.1775 17.0394 21.1775 18.6705V25.0413C21.1775 25.1656 21.2269 25.2848 21.3148 25.3727C21.4027 25.4606 21.522 25.51 21.6463 25.51ZM4.45312 6.98766C4.45312 8.37798 5.5977 9.52197 6.98813 9.52197C8.3782 9.52185 9.52207 8.37716 9.52207 6.98708C9.52184 5.597 8.37785 4.45312 6.98766 4.45312C5.59711 4.45312 4.45312 5.59735 4.45312 6.98766ZM5.26863 25.51H8.70305C8.82737 25.51 8.9466 25.4606 9.0345 25.3727C9.12241 25.2848 9.1718 25.1656 9.1718 25.0413V11.9133C9.1718 11.789 9.12241 11.6698 9.0345 11.5818C8.9466 11.4939 8.82737 11.4446 8.70305 11.4446H5.26863C5.14431 11.4446 5.02508 11.4939 4.93718 11.5818C4.84927 11.6698 4.79988 11.789 4.79988 11.9133V25.0413C4.79988 25.1656 4.84927 25.2848 4.93718 25.3727C5.02508 25.4606 5.14431 25.51 5.26863 25.51Z" fill="white"/>
</g>
<defs>
<clipPath id="clip0_722_637">
<rect width="30" height="30" fill="white"/>
</clipPath>
</defs>
</svg>
